<?xml version="1.0" encoding="UTF-8" standalone="no"?>
<svg
   version="1.2"
   viewBox="0 0 111.67471 153.80002"
   width="111.67471"
   height="153.80002"
   id="svg1676"
   xmlns="http://www.w3.org/2000/svg"
   xmlns:svg="http://www.w3.org/2000/svg">
  <title
     id="title1">sniddy-images</title>
  <defs
     id="defs50" />
  <style
     id="style50">
		tspan { white-space:pre } 
		.s0 { fill: #ffffff } 
		.s1 { fill: #c1d0d4;stroke: #b7c6c8;stroke-miterlimit:10;stroke-width: 2 } 
		.s2 { fill: #fefefe } 
		.s3 { opacity: .5;fill: #ffffff } 
		.s4 { opacity: .3;fill: #ffffff } 
		.s5 { opacity: .1;mix-blend-mode: soft-light;fill: url(#g1) } 
		.s6 { fill: none;stroke: #fefefe;stroke-miterlimit:10 } 
		.s7 { fill: #bbcce8 } 
		.s8 { fill: #d9e8f1 } 
		.s9 { fill: #b1c8e7 } 
		.s10 { fill: #a8badb } 
		.s11 { fill: url(#g2) } 
		.s12 { fill: none;stroke: url(#g3);stroke-miterlimit:10 } 
		.s13 { fill: url(#g4) } 
		.s14 { fill: url(#g5) } 
		.s15 { opacity: .1;mix-blend-mode: screen;fill: url(#g6) } 
		.s16 { opacity: .5;mix-blend-mode: screen;fill: url(#g7) } 
		.s17 { mix-blend-mode: screen;fill: url(#g8) } 
		.s18 { opacity: 0;mix-blend-mode: screen;fill: none;stroke: #fefefe;stroke-miterlimit:10;stroke-width: 2.5 } 
		.s19 { fill: url(#g9) } 
		.s20 { fill: url(#g10) } 
		.s21 { fill: url(#g11) } 
		.s22 { fill: url(#g12);stroke: url(#g13);stroke-miterlimit:10;stroke-width: 1 } 
		.s23 { fill: none;stroke: #fefefe;stroke-miterlimit:3.86369;stroke-width: 3.1 } 
		.s24 { fill: #8797cb } 
		.s25 { fill: none;stroke: #98d6d8;stroke-miterlimit:3.86369;stroke-width: 3.1 } 
		.s26 { fill: #98d6d8 } 
		.s27 { fill: #8897cb } 
		.s28 { fill: none;stroke: #98d6d8;stroke-miterlimit:3.86369;stroke-width: 1.6 } 
		.s29 { fill: url(#g14) } 
		.s30 { fill: none;stroke: #fefefe;stroke-miterlimit:3.86369;stroke-width: 1.2 } 
		.s31 { fill: url(#g15) } 
		.s32 { fill: url(#g16) } 
		.s33 { fill: none;stroke: #fefefe;stroke-miterlimit:3.86369;stroke-width: .9 } 
		.s34 { fill: none;stroke: #050405;stroke-miterlimit:10 } 
		.s35 { fill: #050405 } 
		.s36 { opacity: .1;mix-blend-mode: soft-light;fill: url(#g17) } 
		.t37 { font-size: 62px;fill: #ffffff;font-family: &quot;Consolas&quot; } 
		.s38 { fill: url(#g18) } 
		.s39 { fill: url(#g19) } 
		.s40 { fill: url(#g20) } 
		.s41 { opacity: .2;fill: #fefefe }

      @keyframes colorChange {
         0%{fill:#3d8194}
         50%{fill:#98d6d8}
         100%{fill: #fce353}
      }
      .box {
         width:200px;
         height:200px;
         animation: colorChange 3s infinite;
      }
	</style>
  <g
     id="g29"
     transform="translate(-353.80347,-441.01608)">
    <g
       id="g158"
       transform="translate(-2.9630793,1.5160806)">
      <path
         id="path157"
         fill-rule="evenodd"
         class="s24"
         d="m 468.3,491.5 q -0.1,-1.7 -0.4,-3.2 C 465,464.5 447,445.3 423.8,440.5 v 16.1 c 16.5,4.8 28.5,20 28.5,38 0,21.9 -17.8,39.6 -39.7,39.6 q 0,0 0,0 0,0 0,0 c -21.9,0 -39.6,-17.7 -39.6,-39.6 0,-18 12,-33.2 28.4,-38 v -16.1 c -23.2,4.8 -41.1,24 -44,47.8 q -0.3,1.5 -0.5,3.2 c -3.3,43.9 55.7,101.8 55.7,101.8 0,0 59.1,-57.9 55.7,-101.8 z" />
    </g>
    <g
       id="g28">
      <g
         id="g164"
         transform="translate(-2.9630793,1.5160806)">
        <g
           id="g163">
          <path
             id="path161"
             fill-rule="evenodd"
             class="s24"
             d="m 417.6,457.4 0.1,-17.9 H 408 l -0.1,17.9 c -2.1,1.2 -3.4,3.1 -3.8,5.8 h 17.5 c -0.1,-2.7 -1.8,-4.7 -4,-5.8 z" />
          <g
             id="g162">
            <path
               id="path162"
               fill-rule="evenodd"
               class="s24"
               d="m 404.1,464.4 h 17.4 v 2.5 h -17.4 z" />
          </g>
        </g>
      </g>
      <g
         id="g165"
         transform="translate(-3.4956816,1.7512675)"><!--second bulb line-->
        <path
           id="path164"
           fill-rule="evenodd"
           class="s26 box"
           d="m 402.7,480.1 c 0.3,-0.7 1.1,-1.1 1.9,-0.8 l 17.6,5 c 0.8,0.3 1.2,1 1,1.7 l -0.4,1 c -0.3,0.6 -1.1,1 -1.9,0.8 l -17.6,-5.1 c -0.8,-0.2 -1.2,-0.9 -0.9,-1.6 z" />
      </g>
      <g
         id="g166"
         transform="translate(-3.4956816,1.7512675)"><!--third bulb line-->
        <path
           id="path165"
           fill-rule="evenodd"
           class="s26 box"
           d="m 402.8,485.3 c 0.2,-0.6 0.9,-1 1.6,-0.8 l 14.9,4.7 c 0.6,0.2 1,0.9 0.8,1.5 l -0.3,0.9 c -0.2,0.6 -0.9,1 -1.6,0.8 l -14.9,-4.7 c -0.6,-0.2 -1,-0.9 -0.8,-1.5 z" />
      </g>
      <path class="box"
         style="fill:#98d6d8;fill-opacity:1;fill-rule:evenodd;stroke:#000000;stroke-width:0;stroke-dasharray:none;stroke-opacity:1"
         d="m 399.07239,476.97304 c -0.12731,-2.30237 9.55302,-4.05121 9.65872,-7.36278 l 0.0453,-1.18998 3.05313,-0.002 c 0,0 0.34857,2.68955 -1.39418,4.62935 -2.06262,2.29584 -6.07286,3.71851 -7.3286,4.38384 -0.45325,0.24015 -2.75411,1.16858 -3.18148,0.85589 -0.52922,-0.38721 -0.81753,-0.67479 -0.85289,-1.31432 z"
         id="path28" /><!--zero bulb line-->
      <g
         id="g161"
         transform="translate(-2.8326471,1.4654345)">
        <g
           id="g160"><!--first bulb line-->
          <path
             id="path159"
             fill-rule="evenodd"
             class="s26 box"
             d="m 401.92322,475.25355 c 0.4,-0.9 1.8,-1.4 3.3,-1 l 15.2,4.4 c 1.4,0.4 2.3,1.5 1.9,2.5 -0.3,1 -1.8,1.4 -3.2,1 l -15.2,-4.4 c -1.5,-0.4 -2.3,-1.5 -2,-2.5 z"
             style="fill:#98d6d8;fill-opacity:1" />
        </g>
      </g>
    </g>
  </g>
</svg>
